<svg xmlns="http://www.w3.org/2000/svg" width="48" height="48" viewBox="0 0 48 48">
  <g id="Group_12" data-name="Group 12" transform="translate(-1634 -100)">
    <circle id="Ellipse_6" data-name="Ellipse 6" cx="24" cy="24" r="24" transform="translate(1634 100)" fill="#55acee"/>
    <path id="Path_84" data-name="Path 84" d="M24,59.748a9.832,9.832,0,0,1-2.827.775A4.944,4.944,0,0,0,23.338,57.8,9.926,9.926,0,0,1,20.21,59a4.927,4.927,0,0,0-8.389,4.489A13.978,13.978,0,0,1,1.673,58.341,4.929,4.929,0,0,0,3.2,64.913a4.924,4.924,0,0,1-2.23-.618v.061a4.928,4.928,0,0,0,3.949,4.828,4.987,4.987,0,0,1-1.3.172,4.726,4.726,0,0,1-.927-.091,4.926,4.926,0,0,0,4.6,3.419,9.878,9.878,0,0,1-6.114,2.1A10.464,10.464,0,0,1,0,74.721a13.917,13.917,0,0,0,7.547,2.215A13.911,13.911,0,0,0,21.555,62.928l-.017-.637A9.831,9.831,0,0,0,24,59.748Z" transform="translate(1645.999 57.559)" fill="#fff"/>
  </g>
</svg>
