<svg xmlns="http://www.w3.org/2000/svg" width="48" height="48" viewBox="0 0 48 48">
  <g id="Group_13" data-name="Group 13" transform="translate(-1697 -100)">
    <circle id="Ellipse_5" data-name="Ellipse 5" cx="24" cy="24" r="24" transform="translate(1697 100)" fill="#25d366"/>
    <path id="WhatsApp" d="M24,11.691A11.8,11.8,0,0,1,6.523,21.927L0,24l2.127-6.273A11.568,11.568,0,0,1,.436,11.691a11.782,11.782,0,0,1,23.564,0ZM12.218,1.862a9.878,9.878,0,0,0-9.906,9.829A9.726,9.726,0,0,0,4.2,17.454L2.962,21.1l3.807-1.21a9.915,9.915,0,0,0,15.355-8.2A9.879,9.879,0,0,0,12.218,1.862Zm5.95,12.522c-.073-.119-.265-.191-.554-.334s-1.709-.837-1.973-.932-.458-.143-.65.143-.746.932-.915,1.123-.337.216-.626.072a7.9,7.9,0,0,1-2.322-1.422,8.64,8.64,0,0,1-1.607-1.984c-.168-.287-.018-.442.127-.584s.289-.335.433-.5a1.921,1.921,0,0,0,.289-.478.522.522,0,0,0-.024-.5c-.072-.143-.65-1.553-.891-2.127s-.481-.478-.65-.478-.361-.024-.554-.024a1.066,1.066,0,0,0-.77.358A3.2,3.2,0,0,0,6.471,9.1,5.545,5.545,0,0,0,7.65,12.066a11.806,11.806,0,0,0,4.933,4.326c2.936,1.147,2.936.764,3.466.716A2.921,2.921,0,0,0,18,15.746,2.389,2.389,0,0,0,18.168,14.383Z" transform="translate(1709 112)" fill="#fff"/>
  </g>
</svg>
