<svg xmlns="http://www.w3.org/2000/svg" width="237.978" height="48" viewBox="0 0 237.978 48">
  <g id="logo" transform="translate(-2396.1 -417.9)">
    <path id="Path_1" data-name="Path 1" d="M198.91,234.1a3.055,3.055,0,0,0-2.084.819,2.748,2.748,0,0,0-.819,2.009v14.586A12.4,12.4,0,0,0,194.3,249.8a13.35,13.35,0,0,0-3.274-2.009,20.519,20.519,0,0,0-3.8-1.191,17.465,17.465,0,0,0-3.87-.372,19.884,19.884,0,0,0-7.069,1.265,16.547,16.547,0,0,0-5.8,3.572,16.351,16.351,0,0,0-3.87,5.581,17.717,17.717,0,0,0-1.414,7.293,18.074,18.074,0,0,0,1.414,7.367,16.841,16.841,0,0,0,9.674,9.3,20.188,20.188,0,0,0,7.069,1.265,17.159,17.159,0,0,0,3.87-.446,20.65,20.65,0,0,0,3.8-1.265,13.6,13.6,0,0,0,3.274-2.084,18.584,18.584,0,0,0,1.712-1.712v2.307a3.013,3.013,0,0,0,.819,2.009,2.643,2.643,0,0,0,2.084.819,3.055,3.055,0,0,0,2.084-.819,2.748,2.748,0,0,0,.819-2.009V237a3.013,3.013,0,0,0-.819-2.009,2.7,2.7,0,0,0-2.084-.893m-2.828,29.842a13.12,13.12,0,0,1-1.042,5.284,10.483,10.483,0,0,1-2.753,3.87,10.739,10.739,0,0,1-4.018,2.307,15.45,15.45,0,0,1-4.911.819,13,13,0,0,1-4.837-.893,11.539,11.539,0,0,1-6.549-6.4,13.13,13.13,0,0,1-.967-4.912,11.929,11.929,0,0,1,.967-4.986,10.481,10.481,0,0,1,2.6-3.8,11.2,11.2,0,0,1,3.944-2.381,13,13,0,0,1,4.837-.893,13.387,13.387,0,0,1,4.465.744,12.377,12.377,0,0,1,4.093,2.307,11.459,11.459,0,0,1,2.9,3.8,9.4,9.4,0,0,1,1.265,5.135" transform="translate(2239.904 183.949)" fill="#a2d45e"/>
    <path id="Path_2" data-name="Path 2" d="M248.936,255.237a15.99,15.99,0,0,0-5.507-3.572,19.475,19.475,0,0,0-6.995-1.265,19.885,19.885,0,0,0-7.069,1.265,16.924,16.924,0,0,0-5.73,3.572,16.159,16.159,0,0,0-3.8,5.581,19.006,19.006,0,0,0-1.339,7.293,19.392,19.392,0,0,0,1.339,7.367,16.459,16.459,0,0,0,3.8,5.656,18.358,18.358,0,0,0,5.73,3.646,19.883,19.883,0,0,0,7.069,1.265,18.275,18.275,0,0,0,8.334-1.86,16.342,16.342,0,0,0,6.251-5.209,2.644,2.644,0,0,0,.446-2.084,2.479,2.479,0,0,0-1.265-1.712,2.669,2.669,0,0,0-2.232-.3,4.712,4.712,0,0,0-1.786,1.191,13.625,13.625,0,0,1-4.018,3.2,11.7,11.7,0,0,1-5.73,1.191,12.1,12.1,0,0,1-4.39-.744,11.326,11.326,0,0,1-6.325-5.209,10.4,10.4,0,0,1-1.265-3.8h26.641a2.583,2.583,0,0,0,1.86-.744,2.339,2.339,0,0,0,.819-1.935,20.833,20.833,0,0,0-1.265-7.293,15.991,15.991,0,0,0-3.572-5.507m-24.482,10.27a11.243,11.243,0,0,1,3.944-6.846,12.324,12.324,0,0,1,8.037-2.679,11.388,11.388,0,0,1,7.739,2.679,11.724,11.724,0,0,1,3.721,6.846Z" transform="translate(2226.267 179.779)" fill="#a2d45e"/>
    <path id="Path_3" data-name="Path 3" d="M305.993,251.691h0a2.643,2.643,0,0,0-2.084-.819,3.055,3.055,0,0,0-2.084.819,2.748,2.748,0,0,0-.819,2.009v2.084a12.4,12.4,0,0,0-1.712-1.712,13.348,13.348,0,0,0-3.274-2.009,20.521,20.521,0,0,0-3.8-1.191,17.469,17.469,0,0,0-3.87-.372,19.884,19.884,0,0,0-7.069,1.265,16.546,16.546,0,0,0-5.8,3.572,16.349,16.349,0,0,0-3.87,5.581,17.718,17.718,0,0,0-1.414,7.293,18.075,18.075,0,0,0,1.414,7.367,16.84,16.84,0,0,0,9.674,9.3,20.5,20.5,0,0,0,7.069,1.265,17.151,17.151,0,0,0,3.87-.447,20.639,20.639,0,0,0,3.8-1.265,13.6,13.6,0,0,0,3.274-2.084,18.581,18.581,0,0,0,1.712-1.712v2.307a3.013,3.013,0,0,0,.819,2.009,2.643,2.643,0,0,0,2.084.819,3.055,3.055,0,0,0,2.084-.819,2.748,2.748,0,0,0,.819-2.009V253.774a2.546,2.546,0,0,0-.819-2.084m-4.911,16.446a13.119,13.119,0,0,1-1.042,5.284,11.243,11.243,0,0,1-2.679,3.87,10.738,10.738,0,0,1-4.018,2.307,15.45,15.45,0,0,1-4.911.819,13,13,0,0,1-4.837-.893,11.539,11.539,0,0,1-6.548-6.4,13.129,13.129,0,0,1-.967-4.912,11.929,11.929,0,0,1,.967-4.986,10.48,10.48,0,0,1,2.6-3.8,11.2,11.2,0,0,1,3.944-2.381,13,13,0,0,1,4.837-.893,13.385,13.385,0,0,1,4.465.744,12.375,12.375,0,0,1,4.093,2.307,10.555,10.555,0,0,1,2.9,3.8,10.273,10.273,0,0,1,1.191,5.135" transform="translate(2213.04 179.754)" fill="#a2d45e"/>
    <path id="Path_4" data-name="Path 4" d="M156,251a3.055,3.055,0,0,0-2.084.819,2.748,2.748,0,0,0-.819,2.009V283a3.014,3.014,0,0,0,.819,2.009,2.644,2.644,0,0,0,2.084.819,3.055,3.055,0,0,0,2.084-.819A2.748,2.748,0,0,0,158.9,283V253.828a3.013,3.013,0,0,0-.819-2.009A2.643,2.643,0,0,0,156,251" transform="translate(2243 179.626)" fill="#a2d45e"/>
    <path id="Path_5" data-name="Path 5" d="M156.028,242.309a2.812,2.812,0,0,0,2.828-2.753v-2.9a2.829,2.829,0,0,0-5.656,0v2.9a2.812,2.812,0,0,0,2.828,2.753" transform="translate(2242.974 184)" fill="#a2d45e"/>
    <path id="Path_6" data-name="Path 6" d="M341.156,265.73l-4.763-1.042a10.69,10.69,0,0,1-1.86-.6,6.222,6.222,0,0,1-1.712-.893,4.6,4.6,0,0,1-1.116-1.488,4.023,4.023,0,0,1-.149-2.158,3.689,3.689,0,0,1,1.935-2.6,7.294,7.294,0,0,1,4.093-1.042,8.045,8.045,0,0,1,3.274.6,5.15,5.15,0,0,1,1.935,1.861,6.15,6.15,0,0,0,1.191,1.488,2.217,2.217,0,0,0,2.307.3,2.772,2.772,0,0,0,1.786-1.34,2.443,2.443,0,0,0,.149-2.158,8.672,8.672,0,0,0-4.316-4.837,14.065,14.065,0,0,0-6.325-1.414,14.831,14.831,0,0,0-4.167.6,13.714,13.714,0,0,0-3.5,1.637,9.635,9.635,0,0,0-2.6,2.6,8.058,8.058,0,0,0-1.339,3.423,10.908,10.908,0,0,0,.372,5.06A8.68,8.68,0,0,0,328.505,267a10.464,10.464,0,0,0,3.125,1.935,28.863,28.863,0,0,0,3.349,1.042l4.837,1.042a6.316,6.316,0,0,1,3.646,1.935,4.578,4.578,0,0,1,1.042,2.828,4.1,4.1,0,0,1-1.86,3.5,8.662,8.662,0,0,1-5.06,1.34,8.768,8.768,0,0,1-4.986-1.191,6.908,6.908,0,0,1-2.232-2.754,3.9,3.9,0,0,0-1.191-1.637,2.266,2.266,0,0,0-2.084-.372,2.611,2.611,0,0,0-1.712,1.191,2.52,2.52,0,0,0-.223,2.084,10.872,10.872,0,0,0,1.86,3.423,15.286,15.286,0,0,0,2.828,2.53,13.551,13.551,0,0,0,7.367,2.084,16.481,16.481,0,0,0,5.134-.744,14.573,14.573,0,0,0,4.167-2.084,9.52,9.52,0,0,0,3.8-7.442,10.132,10.132,0,0,0-2.009-6.251c-1.414-1.637-3.8-2.977-7.144-3.721" transform="translate(2199.011 179.779)" fill="#0075c9"/>
    <path id="Path_7" data-name="Path 7" d="M394.752,255.237a18.055,18.055,0,0,0-5.879-3.572,20.921,20.921,0,0,0-7.144-1.265,20.606,20.606,0,0,0-7.144,1.265,16.864,16.864,0,0,0-5.879,3.572,19.125,19.125,0,0,0-4.018,5.581,17.733,17.733,0,0,0-1.488,7.293,18.089,18.089,0,0,0,1.488,7.367,17.04,17.04,0,0,0,4.018,5.656,18.226,18.226,0,0,0,5.879,3.646,20.919,20.919,0,0,0,7.144,1.265,20.6,20.6,0,0,0,7.144-1.265,17.035,17.035,0,0,0,5.879-3.646,18.531,18.531,0,0,0,4.018-5.656,18.091,18.091,0,0,0,1.488-7.367,17.735,17.735,0,0,0-1.488-7.293,19.127,19.127,0,0,0-4.018-5.581m-.3,12.874a12.917,12.917,0,0,1-1.042,5.135,11.133,11.133,0,0,1-2.753,3.87,13.329,13.329,0,0,1-4.093,2.456,13.953,13.953,0,0,1-9.823,0,13.328,13.328,0,0,1-4.093-2.456,10.482,10.482,0,0,1-2.753-3.87,12.4,12.4,0,0,1-1.042-5.135,12.554,12.554,0,0,1,1.042-5.06,10.843,10.843,0,0,1,2.753-3.8,11.845,11.845,0,0,1,4.093-2.381,13.953,13.953,0,0,1,9.823,0,14.782,14.782,0,0,1,4.093,2.381,10.846,10.846,0,0,1,2.753,3.8,12.556,12.556,0,0,1,1.042,5.06" transform="translate(2189.245 179.779)" fill="#0075c9"/>
    <path id="Path_8" data-name="Path 8" d="M465.122,248.044h0a2.975,2.975,0,0,0-1.935-.744H458.2v-9.972a3.013,3.013,0,0,0-.819-2.009,2.643,2.643,0,0,0-2.084-.819,3.055,3.055,0,0,0-2.084.819,2.748,2.748,0,0,0-.818,2.009V247.3h-3.944a2.635,2.635,0,0,0-1.935.744,2.524,2.524,0,0,0,0,3.721,2.975,2.975,0,0,0,1.935.744H452.4V279a3.013,3.013,0,0,0,.818,2.009,2.643,2.643,0,0,0,2.084.819,3.055,3.055,0,0,0,2.084-.819A2.748,2.748,0,0,0,458.2,279V252.509h4.986a2.635,2.635,0,0,0,1.935-.744,2.419,2.419,0,0,0,.818-1.86,2.2,2.2,0,0,0-.818-1.861" transform="translate(2168.137 183.847)" fill="#0075c9"/>
    <path id="Path_9" data-name="Path 9" d="M440.967,256.6a.9.9,0,0,1-.372.372,1.62,1.62,0,0,1-.6.372,2.609,2.609,0,0,0,.6-.372c.149-.074.223-.223.372-.372" transform="translate(2169.596 178.193)" fill="#0075c9"/>
    <path id="Path_10" data-name="Path 10" d="M427.395,242.563a5.15,5.15,0,0,1,1.86-1.935,6.321,6.321,0,0,1,3.423-.744h1.637a2.694,2.694,0,0,0,2.009-.744,2.419,2.419,0,0,0,.819-1.86,2.674,2.674,0,0,0-2.828-2.679h-1.637a12.988,12.988,0,0,0-5.656,1.116,10.471,10.471,0,0,0-3.721,2.977,13.63,13.63,0,0,0-2.009,4.465,19.593,19.593,0,0,0-.521,4.316H416.6a2.72,2.72,0,0,0-1.86.67,2.7,2.7,0,0,0,0,3.721,2.72,2.72,0,0,0,1.86.67h4.167V279.1a2.7,2.7,0,0,0,.819,1.935,2.875,2.875,0,0,0,4.018,0,2.7,2.7,0,0,0,.819-1.935V252.535h5.8a2.72,2.72,0,0,0,1.86-.67,2.263,2.263,0,0,0,.744-1.861,2.362,2.362,0,0,0-.744-1.86,2.72,2.72,0,0,0-1.86-.67H426.5c0-.67.074-1.34.149-2.084a5.7,5.7,0,0,1,.744-2.828" transform="translate(2176.248 183.821)" fill="#0075c9"/>
  </g>
</svg>
